<?xml version="1.0" encoding="UTF-8" standalone="no"?>
<!-- Created with Inkscape (http://www.inkscape.org/) -->

<svg
   xmlns:dc="http://purl.org/dc/elements/1.1/"
   xmlns:cc="http://creativecommons.org/ns#"
   xmlns:rdf="http://www.w3.org/1999/02/22-rdf-syntax-ns#"
   xmlns:svg="http://www.w3.org/2000/svg"
   xmlns="http://www.w3.org/2000/svg"
   xmlns:sodipodi="http://sodipodi.sourceforge.net/DTD/sodipodi-0.dtd"
   xmlns:inkscape="http://www.inkscape.org/namespaces/inkscape"
   width="2990.688px"
   height="560.441px"
   viewBox="0 0 299.68799 56.441002"
   version="1.1"
   id="svg32"
   inkscape:version="0.92.3 (2405546, 2018-03-11)"
   sodipodi:docname="FINAL_LOGO_RETO.svg">
  <defs
     id="defs26" />
  <sodipodi:namedview
     id="base"
     pagecolor="#ffffff"
     bordercolor="#666666"
     borderopacity="1.0"
     inkscape:pageopacity="0.0"
     inkscape:pageshadow="2"
     inkscape:zoom="0.98994949"
     inkscape:cx="681.94027"
     inkscape:cy="186.36797"
     inkscape:document-units="mm"
     inkscape:current-layer="layer1"
     showgrid="false"
     inkscape:window-width="1600"
     inkscape:window-height="837"
     inkscape:window-x="-8"
     inkscape:window-y="178"
     inkscape:window-maximized="1" />
  <metadata
     id="metadata29">
    <rdf:RDF>
      <cc:Work
         rdf:about="">
        <dc:format>image/svg+xml</dc:format>
        <dc:type
           rdf:resource="http://purl.org/dc/dcmitype/StillImage" />
        <dc:title></dc:title>
      </cc:Work>
    </rdf:RDF>
  </metadata>
  <g
     inkscape:label="Layer 1"
     inkscape:groupmode="layer"
     id="layer1"
     transform="translate(0,-240.559)">
    <g
       style="clip-rule:evenodd;fill-rule:evenodd;stroke-linejoin:round;stroke-miterlimit:2"
       id="g14"
       transform="matrix(0.26458333,0,0,0.26458333,-101.22437,131.8364)">
      <g
         transform="translate(10)"
         id="g6">
        <path
           d="m 1404.53,562 -1.05,-14 h -10 l -7.08,-94.081 c -0.27,-3.609 2.44,-6.76 6.05,-7.031 3.61,-0.272 6.76,2.438 7.03,6.047 l 7.15,95.065 h 10 l 1.05,14 h -10 l 1.14,15.148 30.77,-2.314 -2.83,-37.605 c -0.08,-1.102 0.46,-2.159 1.4,-2.739 0.94,-0.579 2.13,-0.586 3.07,-0.015 l 62.6,37.67 c 0.82,0.494 1.35,1.355 1.42,2.311 0.07,0.955 -0.32,1.886 -1.06,2.498 l -56.26,46.607 c -0.85,0.705 -2.02,0.876 -3.04,0.444 -1.02,-0.433 -1.71,-1.397 -1.79,-2.499 l -2.53,-33.592 -37.31,2.805 c -3.61,0.272 -6.76,-2.436 -7.03,-6.048 L 1394.53,562 Z m -61.63,0 c 0.08,-0.257 0.17,-0.513 0.25,-0.768 1.41,-4.406 2.63,-8.817 3.65,-13.232 h -10 c 2.71,-11.663 4.06,-23.36 4.06,-35.093 0,-16.04 -2.61,-32.114 -7.82,-48.222 -5.2,-16.109 -13.29,-32.8 -24.26,-50.074 -0.96,-1.508 -0.55,-2.262 1.23,-2.262 h 15.22 c 1.1,0 2.06,0.617 2.88,1.851 12.89,16.04 22.24,32.183 28.07,48.428 5.83,16.246 8.74,33.005 8.74,50.279 0,11.974 -1.38,23.671 -4.13,35.093 h 10 c -1.14,4.714 -2.51,9.381 -4.12,14 h -10 c -0.16,0.465 -0.32,0.929 -0.49,1.392 -5.83,16.245 -15.18,32.319 -28.07,48.222 -0.82,1.234 -1.78,1.851 -2.88,1.851 h -15.22 c -0.96,0 -1.5,-0.24 -1.64,-0.72 -0.14,-0.48 0,-0.994 0.41,-1.542 10.93,-16.999 18.97,-33.401 24.12,-49.203 z m -94.63,0 -0.02,-0.036 c -1.65,-4.608 -3.07,-9.262 -4.25,-13.964 h -10 c -2.99,-11.874 -4.49,-24.048 -4.49,-36.521 0,-17.274 2.91,-34.033 8.74,-50.279 5.83,-16.245 15.18,-32.388 28.07,-48.428 0.82,-1.234 1.78,-1.851 2.88,-1.851 h 15.22 c 1.78,0 2.19,0.754 1.23,2.262 -10.97,17.274 -19.05,33.965 -24.26,50.074 -5.21,16.108 -7.82,32.182 -7.82,48.222 0,12.212 1.47,24.385 4.4,36.521 h 10 c 0.95,3.938 2.05,7.873 3.31,11.804 0.24,0.73 0.48,1.461 0.73,2.196 h -10 c 5.16,15.361 13.04,31.287 23.64,47.775 0.41,0.548 0.55,1.062 0.41,1.542 -0.13,0.48 -0.68,0.72 -1.64,0.72 h -15.22 c -1.1,0 -2.06,-0.617 -2.88,-1.851 -12.88,-15.892 -22.23,-31.954 -28.05,-48.186 z m -816.123,-10 0.208,-13.407 2.633,-95.485 c 0.285,-1.266 0.732,-2.05 1.34,-2.352 0.608,-0.302 1.534,-0.488 2.78,-0.559 l 25.093,-1.419 c 1.246,-0.071 2.187,0.01 2.825,0.242 0.638,0.231 1.171,0.96 1.597,2.186 l 13.384,94.579 2.096,16.215 h 1.091 l -0.251,-16.381 1.042,-114.142 c 0.286,-1.265 0.688,-2.047 1.206,-2.344 0.519,-0.297 1.401,-0.481 2.647,-0.551 l 17.885,-1.012 c 2.314,-0.131 3.666,0.105 4.058,0.708 0.391,0.602 0.444,1.537 0.158,2.802 L 507.431,552 h -10 l -0.379,11 h 10 l -1.294,37.587 c -0.276,1.444 -0.673,2.315 -1.192,2.612 -0.518,0.297 -1.49,0.486 -2.913,0.566 l -26.962,1.526 c -1.423,0.08 -2.41,0.002 -2.959,-0.235 -0.549,-0.236 -1.041,-1.057 -1.478,-2.46 L 464.844,563 h -10 l -1.503,-11 h 10 l -6.34,-46.401 -2.976,-24.201 -0.227,24.382 -1.053,46.22 h -10 l -0.251,11 h 10 l -0.926,40.653 c -0.275,1.444 -0.628,2.312 -1.058,2.604 -0.43,0.292 -1.445,0.483 -3.047,0.574 l -26.961,1.525 c -1.424,0.081 -2.41,0.002 -2.959,-0.234 -0.549,-0.237 -1.042,-1.057 -1.479,-2.461 L 409.793,563 h -10 l -1.617,-11 h 10 L 389.945,427.981 c -0.426,-1.225 -0.479,-2.159 -0.158,-2.802 0.321,-0.643 1.638,-1.03 3.951,-1.161 l 17.619,-0.997 c 1.245,-0.07 2.143,0.013 2.692,0.249 0.549,0.237 1.036,0.968 1.463,2.194 l 13.907,113.296 1.298,13.24 z m 489.217,-52 -1.432,11 h -11 l -12.292,94.418 c -0.411,1.41 -0.888,2.238 -1.432,2.484 -0.544,0.246 -1.528,0.342 -2.951,0.287 l -26.952,-1.039 c -1.423,-0.055 -2.396,-0.226 -2.92,-0.513 -0.523,-0.288 -0.935,-1.15 -1.236,-2.587 L 857.355,511 h -3.957 l -10.929,92.33 c -0.41,1.41 -0.843,2.239 -1.298,2.489 -0.455,0.25 -1.483,0.344 -3.084,0.282 l -26.952,-1.039 c -1.423,-0.055 -2.396,-0.226 -2.92,-0.514 -0.523,-0.287 -0.935,-1.149 -1.236,-2.586 L 802.343,511 h 11 l -0.56,-11 h -11 l -3.933,-77.176 c -0.308,-1.259 -0.272,-2.193 0.108,-2.802 0.38,-0.609 1.726,-0.869 4.039,-0.78 l 17.612,0.679 c 1.245,0.048 2.129,0.216 2.653,0.503 0.523,0.287 0.939,1.061 1.246,2.32 L 825.603,500 h 8.467 l 7.131,-57.867 c 0.404,-1.232 0.922,-1.969 1.555,-2.212 0.633,-0.243 1.572,-0.34 2.817,-0.292 l 25.084,0.967 c 1.245,0.048 2.174,0.217 2.786,0.508 0.613,0.291 1.073,1.066 1.381,2.325 L 877.402,500 h 8.762 l 7.792,-74.541 c 0.404,-1.231 0.878,-1.97 1.422,-2.216 0.544,-0.247 1.439,-0.346 2.684,-0.298 l 17.879,0.69 c 2.312,0.089 3.635,0.451 3.966,1.088 0.332,0.636 0.296,1.57 -0.108,2.802 L 910.364,500 Z M 1181,562 v -14 h -10 v 14 z M 977.601,500 c -1.065,-1.041 -2.3,-1.985 -3.706,-2.831 -2.695,-1.621 -6.025,-2.47 -9.989,-2.547 -5.285,-0.101 -10.796,0.784 -16.532,2.656 -2.416,0.789 -4.769,1.696 -7.058,2.722 h 11 c -3.145,1.409 -6.17,3.042 -9.075,4.899 -2.509,1.604 -4.216,2.315 -5.122,2.132 -0.905,-0.183 -1.342,-1.1 -1.31,-2.752 L 935.892,500 h -11 l 0.289,-15.045 c 0.006,-0.33 -0.023,-0.951 -0.088,-1.861 -0.065,-0.91 0.237,-1.606 0.908,-2.089 0.841,-0.81 1.929,-1.532 3.263,-2.168 5.009,-2.712 10.504,-4.92 16.485,-6.622 5.981,-1.702 12.027,-2.495 18.139,-2.377 15.856,0.305 27.629,4.538 35.321,12.7 4.421,4.688 7.521,10.509 9.301,17.462 h 10.34 l -0.83,-73.809 c -0.01,-0.826 0.27,-1.531 0.84,-2.116 0.57,-0.584 1.27,-0.881 2.1,-0.891 l 22.05,-0.247 c 0.83,-0.009 1.53,0.272 2.11,0.844 0.59,0.571 0.89,1.27 0.9,2.096 l 0.83,74.123 h 11 l 0.12,11 h -11 l 0.65,57.847 59.47,-0.667 c 1.98,-0.023 2.98,1.04 3.01,3.187 l 0.22,19.823 c 0.01,0.826 -0.27,1.531 -0.84,2.116 -0.58,0.584 -1.28,0.881 -2.1,0.891 l -84.49,0.947 c -0.83,0.01 -1.54,-0.272 -2.12,-0.843 -0.58,-0.572 -0.88,-1.271 -0.89,-2.097 L 1018.97,511 h -8.78 c 0.12,2.036 0.16,4.145 0.12,6.326 l -1.05,54.505 c -0.08,4.459 -0.13,9.002 -0.14,13.628 0,4.627 0.21,8.761 0.63,12.405 0.12,2.315 -0.81,3.454 -2.79,3.416 l -19.819,-0.382 c -1.156,-0.022 -1.857,-0.118 -2.101,-0.288 -0.245,-0.17 -0.358,-0.75 -0.338,-1.741 l 0.219,-11.397 c -4.075,5.705 -9.114,9.945 -15.116,12.721 -6.001,2.776 -12.058,4.105 -18.169,3.987 -4.79,-0.092 -9.852,-1.057 -15.186,-2.894 -5.335,-1.838 -9.869,-4.486 -13.603,-7.945 -3.733,-3.459 -6.667,-7.688 -8.802,-12.686 -2.134,-4.997 -3.138,-10.8 -3.011,-17.406 0.137,-7.103 1.707,-13.558 4.71,-19.365 3.004,-5.808 7.516,-10.637 13.539,-14.486 6.022,-3.85 13.304,-6.643 21.847,-8.378 8.543,-1.736 19.421,-2.477 32.634,-2.222 0.053,-2.775 -0.148,-5.374 -0.605,-7.798 h 11 c -0.033,-0.174 -0.067,-0.347 -0.102,-0.519 -0.529,-2.571 -1.515,-5.027 -2.957,-7.368 -0.689,-1.12 -1.523,-2.158 -2.499,-3.113 z m -192.43,11 c 1.565,6.872 2.52,14.252 2.864,22.14 0.051,1.155 0.065,2.436 0.044,3.843 -0.021,1.406 -0.021,2.357 0,2.852 0.058,1.32 -0.189,2.282 -0.742,2.885 -0.552,0.603 -1.324,0.926 -2.314,0.969 l -67.831,2.961 c 0.115,1.844 0.322,3.627 0.62,5.35 h -10 c 0.69,3.995 1.872,7.662 3.545,11 h 10 c 1.023,2.041 2.23,3.961 3.621,5.757 4.643,5.998 11.834,8.785 21.571,8.36 5.942,-0.26 11.151,-1.19 15.629,-2.791 4.477,-1.601 9.033,-4.239 13.668,-7.913 1.291,-0.718 2.079,-0.67 2.363,0.144 0.283,0.815 0.45,1.8 0.501,2.955 l 0.767,17.577 c 0.065,1.485 -0.134,2.61 -0.597,3.374 -0.463,0.765 -1.254,1.585 -2.373,2.46 -4.19,2.498 -8.443,4.503 -12.759,6.014 -4.316,1.511 -9.692,2.407 -16.129,2.688 -18.814,0.822 -33.106,-4.59 -42.874,-16.234 -5.266,-6.278 -9.238,-13.741 -11.917,-22.391 h -10 c -1.076,-3.475 -1.943,-7.142 -2.602,-11 h 10 c -0.742,-4.35 -1.219,-8.945 -1.43,-13.783 -0.368,-8.417 0.264,-16.671 1.895,-24.762 1.631,-8.091 4.411,-15.447 8.338,-22.067 3.928,-6.62 9.02,-12.134 15.276,-16.541 6.257,-4.407 13.593,-6.794 22.01,-7.162 8.913,-0.389 16.546,1.179 22.901,4.705 6.354,3.526 11.606,8.299 15.755,14.318 2.772,4.023 5.083,8.454 6.93,13.292 h 11 c 0.918,2.403 1.721,4.905 2.411,7.507 0.304,1.15 0.591,2.314 0.859,3.493 z m -196.686,52 0.774,-11 h 10 l 7.612,-108.281 c 0.051,-0.725 0.345,-1.287 0.883,-1.686 0.538,-0.399 1.169,-0.574 1.894,-0.523 l 32.4,2.278 c 15.946,1.121 27.898,6.222 35.855,15.304 7.957,9.082 11.466,20.291 10.529,33.628 -0.683,9.713 -3.482,17.929 -8.398,24.649 -4.916,6.72 -11.265,11.555 -19.048,14.504 L 670.298,552 h -10 l 5.089,11 h 10 l 15.382,33.246 c 1.038,1.821 0.179,2.635 -2.575,2.442 l -18.701,-1.315 c -1.595,-0.112 -2.677,-0.261 -3.246,-0.447 -0.57,-0.185 -1.182,-0.811 -1.835,-1.877 L 650.312,563 h -10 l -4.839,-11 h 10 l -7.251,-16.482 -13.699,-0.963 -1.227,17.445 h -10 l -0.773,11 h 10 l -2.005,28.526 c -0.112,1.595 -1.111,2.326 -2.995,2.194 l -18.484,-1.3 c -1.739,-0.122 -2.553,-0.981 -2.441,-2.575 L 598.485,563 Z m -54.745,0 v -11 h 10 v -38.354 h -24.265 c -0.686,0 -1.268,-0.24 -1.748,-0.719 -0.48,-0.48 -0.72,-1.131 -0.72,-1.954 v -16.04 c 0,-0.685 0.24,-1.268 0.72,-1.748 0.48,-0.48 1.062,-0.72 1.748,-0.72 h 44.007 c 0.685,0 1.268,0.24 1.748,0.72 0.48,0.48 0.719,1.063 0.719,1.748 V 552 h -10 v 11 h 10 v 13.983 h 25.294 c 0.686,0 1.268,0.24 1.748,0.72 0.48,0.48 0.72,1.063 0.72,1.748 v 16.04 c 0,1.782 -0.823,2.673 -2.468,2.673 h -75.47 c -0.685,0 -1.268,-0.24 -1.748,-0.719 -0.479,-0.48 -0.719,-1.131 -0.719,-1.954 v -16.04 c 0,-0.685 0.24,-1.268 0.719,-1.748 0.48,-0.48 1.063,-0.72 1.748,-0.72 H 543.74 V 563 Z m 403.837,-0.975 c -0.111,5.78 1.54,10.149 4.952,13.107 3.413,2.957 7.102,4.473 11.066,4.55 8.754,0.168 16.004,-3.121 21.752,-9.867 5.748,-6.746 8.715,-14.992 8.903,-24.737 l 0.052,-2.725 c -17.673,-0.34 -29.847,1.202 -36.522,4.626 -6.675,3.424 -10.076,8.439 -10.203,15.046 z m -58.41,-23.29 0.87,25.957 2.065,-25.843 2.912,-27.849 h -7.111 z M 431.952,564.593 431.976,563 h -0.181 z m -9.976,-1.593 0.171,-11 h -1.43 l 1.078,11 z m 404.622,-26.291 0.069,25.925 2.866,-25.812 3.182,-25.822 h -6.814 z M 475.34,561.573 475.194,552 h -1.091 z M 733.108,500 c -0.934,1.367 -1.739,2.867 -2.416,4.5 -0.952,2.297 -1.698,4.464 -2.236,6.5 h -11 c -0.349,1.322 -0.612,2.589 -0.787,3.801 -0.444,3.078 -0.627,5.525 -0.547,7.341 l 44.313,-1.935 c -0.079,-1.815 -0.474,-4.237 -1.185,-7.265 -0.149,-0.634 -0.324,-1.281 -0.525,-1.942 h 11 c -0.758,-2.495 -1.886,-5.181 -3.384,-8.057 -0.544,-1.044 -1.144,-2.025 -1.799,-2.943 h -11 c -1.624,-2.276 -3.589,-4.159 -5.893,-5.65 -3.233,-2.091 -6.83,-3.05 -10.791,-2.877 -3.961,0.173 -7.42,1.44 -10.376,3.801 -1.682,1.344 -3.14,2.919 -4.374,4.726 z m -103.755,-34.159 -3.241,46.099 10.655,0.749 c 8.119,0.571 14.56,-0.907 19.324,-4.433 4.764,-3.525 7.421,-9.202 7.971,-17.03 0.561,-7.974 -1.134,-13.92 -5.083,-17.84 -3.949,-3.919 -9.331,-6.119 -16.144,-6.598 z M 868.355,511 868.165,506.352 867.991,500 h -2.376 l -0.652,6.229 -0.565,4.771 z m -31.454,0 h 6.814 l 1.355,-11 h -8.467 z M 712,511 v -11 h -11 v 11 z m 317.97,0 -0.12,-11 h -10.34 c 0.87,3.397 1.43,7.064 1.68,11 z m -133.956,0 1.15,-11 h -8.762 l 0.501,11 z M 856.5,482.008 854.615,500 h 2.376 z M 550,437 c 13.246,0 24,10.754 24,24 0,13.246 -10.754,24 -24,24 -13.246,0 -24,-10.754 -24,-24 0,-13.246 10.754,-24 24,-24 z m 646.68,125 25.52,36.895 c 1.74,2.083 1.21,3.18 -1.6,3.292 l -22.78,0.909 c -1.81,0.073 -3.1,-0.083 -3.86,-0.467 -0.76,-0.385 -1.58,-1.222 -2.46,-2.512 l -34.54,-51.56 -13.7,17.193 1.45,36.482 c 0.09,1.986 -0.95,3.022 -3.09,3.108 l -20.06,0.8 c -0.82,0.033 -1.54,-0.228 -2.14,-0.782 -0.6,-0.555 -0.92,-1.245 -0.95,-2.07 l -7.18,-180.005 c -0.04,-0.825 0.22,-1.538 0.78,-2.139 0.55,-0.601 1.24,-0.918 2.07,-0.951 l 20.05,-0.8 c 0.99,-0.04 1.79,0.218 2.39,0.774 0.6,0.556 0.92,1.247 0.95,2.072 l 4.28,107.114 39.14,-50.812 c 1.26,-1.544 2.55,-2.342 3.87,-2.394 l 25.5,-1.018 c 3.14,-0.125 3.68,1.009 1.62,3.403 L 1173.25,528.129 1187,548 h 10 l 9.68,14 z"
           style="fill:#cb5269"
           id="path4"
           inkscape:connector-curvature="0" />
      </g>
      <g
         transform="translate(-7)"
         id="g10">
        <path
           d="m 1404.53,562 -1.05,-14 h -10 l -7.08,-94.081 c -0.27,-3.609 2.44,-6.76 6.05,-7.031 3.61,-0.272 6.76,2.438 7.03,6.047 l 7.15,95.065 h 10 l 1.05,14 h -10 l 1.14,15.148 30.77,-2.314 -2.83,-37.605 c -0.08,-1.102 0.46,-2.159 1.4,-2.739 0.94,-0.579 2.13,-0.586 3.07,-0.015 l 62.6,37.67 c 0.82,0.494 1.35,1.355 1.42,2.311 0.07,0.955 -0.32,1.886 -1.06,2.498 l -56.26,46.607 c -0.85,0.705 -2.02,0.876 -3.04,0.444 -1.02,-0.433 -1.71,-1.397 -1.79,-2.499 l -2.53,-33.592 -37.31,2.805 c -3.61,0.272 -6.76,-2.436 -7.03,-6.048 L 1394.53,562 Z m -61.63,0 c 0.08,-0.257 0.17,-0.513 0.25,-0.768 1.41,-4.406 2.63,-8.817 3.65,-13.232 h -10 c 2.71,-11.663 4.06,-23.36 4.06,-35.093 0,-16.04 -2.61,-32.114 -7.82,-48.222 -5.2,-16.109 -13.29,-32.8 -24.26,-50.074 -0.96,-1.508 -0.55,-2.262 1.23,-2.262 h 15.22 c 1.1,0 2.06,0.617 2.88,1.851 12.89,16.04 22.24,32.183 28.07,48.428 5.83,16.246 8.74,33.005 8.74,50.279 0,11.974 -1.38,23.671 -4.13,35.093 h 10 c -1.14,4.714 -2.51,9.381 -4.12,14 h -10 c -0.16,0.465 -0.32,0.929 -0.49,1.392 -5.83,16.245 -15.18,32.319 -28.07,48.222 -0.82,1.234 -1.78,1.851 -2.88,1.851 h -15.22 c -0.96,0 -1.5,-0.24 -1.64,-0.72 -0.14,-0.48 0,-0.994 0.41,-1.542 10.93,-16.999 18.97,-33.401 24.12,-49.203 z m -94.63,0 -0.02,-0.036 c -1.65,-4.608 -3.07,-9.262 -4.25,-13.964 h -10 c -2.99,-11.874 -4.49,-24.048 -4.49,-36.521 0,-17.274 2.91,-34.033 8.74,-50.279 5.83,-16.245 15.18,-32.388 28.07,-48.428 0.82,-1.234 1.78,-1.851 2.88,-1.851 h 15.22 c 1.78,0 2.19,0.754 1.23,2.262 -10.97,17.274 -19.05,33.965 -24.26,50.074 -5.21,16.108 -7.82,32.182 -7.82,48.222 0,12.212 1.47,24.385 4.4,36.521 h 10 c 0.95,3.938 2.05,7.873 3.31,11.804 0.24,0.73 0.48,1.461 0.73,2.196 h -10 c 5.16,15.361 13.04,31.287 23.64,47.775 0.41,0.548 0.55,1.062 0.41,1.542 -0.13,0.48 -0.68,0.72 -1.64,0.72 h -15.22 c -1.1,0 -2.06,-0.617 -2.88,-1.851 -12.88,-15.892 -22.23,-31.954 -28.05,-48.186 z m -816.123,-10 0.208,-13.407 2.633,-95.485 c 0.285,-1.266 0.732,-2.05 1.34,-2.352 0.608,-0.302 1.534,-0.488 2.78,-0.559 l 25.093,-1.419 c 1.246,-0.071 2.187,0.01 2.825,0.242 0.638,0.231 1.171,0.96 1.597,2.186 l 13.384,94.579 2.096,16.215 h 1.091 l -0.251,-16.381 1.042,-114.142 c 0.286,-1.265 0.688,-2.047 1.206,-2.344 0.519,-0.297 1.401,-0.481 2.647,-0.551 l 17.885,-1.012 c 2.314,-0.131 3.666,0.105 4.058,0.708 0.391,0.602 0.444,1.537 0.158,2.802 L 507.431,552 h -10 l -0.379,11 h 10 l -1.294,37.587 c -0.276,1.444 -0.673,2.315 -1.192,2.612 -0.518,0.297 -1.49,0.486 -2.913,0.566 l -26.962,1.526 c -1.423,0.08 -2.41,0.002 -2.959,-0.235 -0.549,-0.236 -1.041,-1.057 -1.478,-2.46 L 464.844,563 h -10 l -1.503,-11 h 10 l -6.34,-46.401 -2.976,-24.201 -0.227,24.382 -1.053,46.22 h -10 l -0.251,11 h 10 l -0.926,40.653 c -0.275,1.444 -0.628,2.312 -1.058,2.604 -0.43,0.292 -1.445,0.483 -3.047,0.574 l -26.961,1.525 c -1.424,0.081 -2.41,0.002 -2.959,-0.234 -0.549,-0.237 -1.042,-1.057 -1.479,-2.461 L 409.793,563 h -10 l -1.617,-11 h 10 L 389.945,427.981 c -0.426,-1.225 -0.479,-2.159 -0.158,-2.802 0.321,-0.643 1.638,-1.03 3.951,-1.161 l 17.619,-0.997 c 1.245,-0.07 2.143,0.013 2.692,0.249 0.549,0.237 1.036,0.968 1.463,2.194 l 13.907,113.296 1.298,13.24 z m 489.217,-52 -1.432,11 h -11 l -12.292,94.418 c -0.411,1.41 -0.888,2.238 -1.432,2.484 -0.544,0.246 -1.528,0.342 -2.951,0.287 l -26.952,-1.039 c -1.423,-0.055 -2.396,-0.226 -2.92,-0.513 -0.523,-0.288 -0.935,-1.15 -1.236,-2.587 L 857.355,511 h -3.957 l -10.929,92.33 c -0.41,1.41 -0.843,2.239 -1.298,2.489 -0.455,0.25 -1.483,0.344 -3.084,0.282 l -26.952,-1.039 c -1.423,-0.055 -2.396,-0.226 -2.92,-0.514 -0.523,-0.287 -0.935,-1.149 -1.236,-2.586 L 802.343,511 h 11 l -0.56,-11 h -11 l -3.933,-77.176 c -0.308,-1.259 -0.272,-2.193 0.108,-2.802 0.38,-0.609 1.726,-0.869 4.039,-0.78 l 17.612,0.679 c 1.245,0.048 2.129,0.216 2.653,0.503 0.523,0.287 0.939,1.061 1.246,2.32 L 825.603,500 h 8.467 l 7.131,-57.867 c 0.404,-1.232 0.922,-1.969 1.555,-2.212 0.633,-0.243 1.572,-0.34 2.817,-0.292 l 25.084,0.967 c 1.245,0.048 2.174,0.217 2.786,0.508 0.613,0.291 1.073,1.066 1.381,2.325 L 877.402,500 h 8.762 l 7.792,-74.541 c 0.404,-1.231 0.878,-1.97 1.422,-2.216 0.544,-0.247 1.439,-0.346 2.684,-0.298 l 17.879,0.69 c 2.312,0.089 3.635,0.451 3.966,1.088 0.332,0.636 0.296,1.57 -0.108,2.802 L 910.364,500 Z M 1181,562 v -14 h -10 v 14 z M 977.601,500 c -1.065,-1.041 -2.3,-1.985 -3.706,-2.831 -2.695,-1.621 -6.025,-2.47 -9.989,-2.547 -5.285,-0.101 -10.796,0.784 -16.532,2.656 -2.416,0.789 -4.769,1.696 -7.058,2.722 h 11 c -3.145,1.409 -6.17,3.042 -9.075,4.899 -2.509,1.604 -4.216,2.315 -5.122,2.132 -0.905,-0.183 -1.342,-1.1 -1.31,-2.752 L 935.892,500 h -11 l 0.289,-15.045 c 0.006,-0.33 -0.023,-0.951 -0.088,-1.861 -0.065,-0.91 0.237,-1.606 0.908,-2.089 0.841,-0.81 1.929,-1.532 3.263,-2.168 5.009,-2.712 10.504,-4.92 16.485,-6.622 5.981,-1.702 12.027,-2.495 18.139,-2.377 15.856,0.305 27.629,4.538 35.321,12.7 4.421,4.688 7.521,10.509 9.301,17.462 h 10.34 l -0.83,-73.809 c -0.01,-0.826 0.27,-1.531 0.84,-2.116 0.57,-0.584 1.27,-0.881 2.1,-0.891 l 22.05,-0.247 c 0.83,-0.009 1.53,0.272 2.11,0.844 0.59,0.571 0.89,1.27 0.9,2.096 l 0.83,74.123 h 11 l 0.12,11 h -11 l 0.65,57.847 59.47,-0.667 c 1.98,-0.023 2.98,1.04 3.01,3.187 l 0.22,19.823 c 0.01,0.826 -0.27,1.531 -0.84,2.116 -0.58,0.584 -1.28,0.881 -2.1,0.891 l -84.49,0.947 c -0.83,0.01 -1.54,-0.272 -2.12,-0.843 -0.58,-0.572 -0.88,-1.271 -0.89,-2.097 L 1018.97,511 h -8.78 c 0.12,2.036 0.16,4.145 0.12,6.326 l -1.05,54.505 c -0.08,4.459 -0.13,9.002 -0.14,13.628 0,4.627 0.21,8.761 0.63,12.405 0.12,2.315 -0.81,3.454 -2.79,3.416 l -19.819,-0.382 c -1.156,-0.022 -1.857,-0.118 -2.101,-0.288 -0.245,-0.17 -0.358,-0.75 -0.338,-1.741 l 0.219,-11.397 c -4.075,5.705 -9.114,9.945 -15.116,12.721 -6.001,2.776 -12.058,4.105 -18.169,3.987 -4.79,-0.092 -9.852,-1.057 -15.186,-2.894 -5.335,-1.838 -9.869,-4.486 -13.603,-7.945 -3.733,-3.459 -6.667,-7.688 -8.802,-12.686 -2.134,-4.997 -3.138,-10.8 -3.011,-17.406 0.137,-7.103 1.707,-13.558 4.71,-19.365 3.004,-5.808 7.516,-10.637 13.539,-14.486 6.022,-3.85 13.304,-6.643 21.847,-8.378 8.543,-1.736 19.421,-2.477 32.634,-2.222 0.053,-2.775 -0.148,-5.374 -0.605,-7.798 h 11 c -0.033,-0.174 -0.067,-0.347 -0.102,-0.519 -0.529,-2.571 -1.515,-5.027 -2.957,-7.368 -0.689,-1.12 -1.523,-2.158 -2.499,-3.113 z m -192.43,11 c 1.565,6.872 2.52,14.252 2.864,22.14 0.051,1.155 0.065,2.436 0.044,3.843 -0.021,1.406 -0.021,2.357 0,2.852 0.058,1.32 -0.189,2.282 -0.742,2.885 -0.552,0.603 -1.324,0.926 -2.314,0.969 l -67.831,2.961 c 0.115,1.844 0.322,3.627 0.62,5.35 h -10 c 0.69,3.995 1.872,7.662 3.545,11 h 10 c 1.023,2.041 2.23,3.961 3.621,5.757 4.643,5.998 11.834,8.785 21.571,8.36 5.942,-0.26 11.151,-1.19 15.629,-2.791 4.477,-1.601 9.033,-4.239 13.668,-7.913 1.291,-0.718 2.079,-0.67 2.363,0.144 0.283,0.815 0.45,1.8 0.501,2.955 l 0.767,17.577 c 0.065,1.485 -0.134,2.61 -0.597,3.374 -0.463,0.765 -1.254,1.585 -2.373,2.46 -4.19,2.498 -8.443,4.503 -12.759,6.014 -4.316,1.511 -9.692,2.407 -16.129,2.688 -18.814,0.822 -33.106,-4.59 -42.874,-16.234 -5.266,-6.278 -9.238,-13.741 -11.917,-22.391 h -10 c -1.076,-3.475 -1.943,-7.142 -2.602,-11 h 10 c -0.742,-4.35 -1.219,-8.945 -1.43,-13.783 -0.368,-8.417 0.264,-16.671 1.895,-24.762 1.631,-8.091 4.411,-15.447 8.338,-22.067 3.928,-6.62 9.02,-12.134 15.276,-16.541 6.257,-4.407 13.593,-6.794 22.01,-7.162 8.913,-0.389 16.546,1.179 22.901,4.705 6.354,3.526 11.606,8.299 15.755,14.318 2.772,4.023 5.083,8.454 6.93,13.292 h 11 c 0.918,2.403 1.721,4.905 2.411,7.507 0.304,1.15 0.591,2.314 0.859,3.493 z m -196.686,52 0.774,-11 h 10 l 7.612,-108.281 c 0.051,-0.725 0.345,-1.287 0.883,-1.686 0.538,-0.399 1.169,-0.574 1.894,-0.523 l 32.4,2.278 c 15.946,1.121 27.898,6.222 35.855,15.304 7.957,9.082 11.466,20.291 10.529,33.628 -0.683,9.713 -3.482,17.929 -8.398,24.649 -4.916,6.72 -11.265,11.555 -19.048,14.504 L 670.298,552 h -10 l 5.089,11 h 10 l 15.382,33.246 c 1.038,1.821 0.179,2.635 -2.575,2.442 l -18.701,-1.315 c -1.595,-0.112 -2.677,-0.261 -3.246,-0.447 -0.57,-0.185 -1.182,-0.811 -1.835,-1.877 L 650.312,563 h -10 l -4.839,-11 h 10 l -7.251,-16.482 -13.699,-0.963 -1.227,17.445 h -10 l -0.773,11 h 10 l -2.005,28.526 c -0.112,1.595 -1.111,2.326 -2.995,2.194 l -18.484,-1.3 c -1.739,-0.122 -2.553,-0.981 -2.441,-2.575 L 598.485,563 Z m -54.745,0 v -11 h 10 v -38.354 h -24.265 c -0.686,0 -1.268,-0.24 -1.748,-0.719 -0.48,-0.48 -0.72,-1.131 -0.72,-1.954 v -16.04 c 0,-0.685 0.24,-1.268 0.72,-1.748 0.48,-0.48 1.062,-0.72 1.748,-0.72 h 44.007 c 0.685,0 1.268,0.24 1.748,0.72 0.48,0.48 0.719,1.063 0.719,1.748 V 552 h -10 v 11 h 10 v 13.983 h 25.294 c 0.686,0 1.268,0.24 1.748,0.72 0.48,0.48 0.72,1.063 0.72,1.748 v 16.04 c 0,1.782 -0.823,2.673 -2.468,2.673 h -75.47 c -0.685,0 -1.268,-0.24 -1.748,-0.719 -0.479,-0.48 -0.719,-1.131 -0.719,-1.954 v -16.04 c 0,-0.685 0.24,-1.268 0.719,-1.748 0.48,-0.48 1.063,-0.72 1.748,-0.72 H 543.74 V 563 Z m 403.837,-0.975 c -0.111,5.78 1.54,10.149 4.952,13.107 3.413,2.957 7.102,4.473 11.066,4.55 8.754,0.168 16.004,-3.121 21.752,-9.867 5.748,-6.746 8.715,-14.992 8.903,-24.737 l 0.052,-2.725 c -17.673,-0.34 -29.847,1.202 -36.522,4.626 -6.675,3.424 -10.076,8.439 -10.203,15.046 z m -58.41,-23.29 0.87,25.957 2.065,-25.843 2.912,-27.849 h -7.111 z M 431.952,564.593 431.976,563 h -0.181 z m -9.976,-1.593 0.171,-11 h -1.43 l 1.078,11 z m 404.622,-26.291 0.069,25.925 2.866,-25.812 3.182,-25.822 h -6.814 z M 475.34,561.573 475.194,552 h -1.091 z M 733.108,500 c -0.934,1.367 -1.739,2.867 -2.416,4.5 -0.952,2.297 -1.698,4.464 -2.236,6.5 h -11 c -0.349,1.322 -0.612,2.589 -0.787,3.801 -0.444,3.078 -0.627,5.525 -0.547,7.341 l 44.313,-1.935 c -0.079,-1.815 -0.474,-4.237 -1.185,-7.265 -0.149,-0.634 -0.324,-1.281 -0.525,-1.942 h 11 c -0.758,-2.495 -1.886,-5.181 -3.384,-8.057 -0.544,-1.044 -1.144,-2.025 -1.799,-2.943 h -11 c -1.624,-2.276 -3.589,-4.159 -5.893,-5.65 -3.233,-2.091 -6.83,-3.05 -10.791,-2.877 -3.961,0.173 -7.42,1.44 -10.376,3.801 -1.682,1.344 -3.14,2.919 -4.374,4.726 z m -103.755,-34.159 -3.241,46.099 10.655,0.749 c 8.119,0.571 14.56,-0.907 19.324,-4.433 4.764,-3.525 7.421,-9.202 7.971,-17.03 0.561,-7.974 -1.134,-13.92 -5.083,-17.84 -3.949,-3.919 -9.331,-6.119 -16.144,-6.598 z M 868.355,511 868.165,506.352 867.991,500 h -2.376 l -0.652,6.229 -0.565,4.771 z m -31.454,0 h 6.814 l 1.355,-11 h -8.467 z M 712,511 v -11 h -11 v 11 z m 317.97,0 -0.12,-11 h -10.34 c 0.87,3.397 1.43,7.064 1.68,11 z m -133.956,0 1.15,-11 h -8.762 l 0.501,11 z M 856.5,482.008 854.615,500 h 2.376 z M 550,437 c 13.246,0 24,10.754 24,24 0,13.246 -10.754,24 -24,24 -13.246,0 -24,-10.754 -24,-24 0,-13.246 10.754,-24 24,-24 z m 646.68,125 25.52,36.895 c 1.74,2.083 1.21,3.18 -1.6,3.292 l -22.78,0.909 c -1.81,0.073 -3.1,-0.083 -3.86,-0.467 -0.76,-0.385 -1.58,-1.222 -2.46,-2.512 l -34.54,-51.56 -13.7,17.193 1.45,36.482 c 0.09,1.986 -0.95,3.022 -3.09,3.108 l -20.06,0.8 c -0.82,0.033 -1.54,-0.228 -2.14,-0.782 -0.6,-0.555 -0.92,-1.245 -0.95,-2.07 l -7.18,-180.005 c -0.04,-0.825 0.22,-1.538 0.78,-2.139 0.55,-0.601 1.24,-0.918 2.07,-0.951 l 20.05,-0.8 c 0.99,-0.04 1.79,0.218 2.39,0.774 0.6,0.556 0.92,1.247 0.95,2.072 l 4.28,107.114 39.14,-50.812 c 1.26,-1.544 2.55,-2.342 3.87,-2.394 l 25.5,-1.018 c 3.14,-0.125 3.68,1.009 1.62,3.403 L 1173.25,528.129 1187,548 h 10 l 9.68,14 z"
           style="fill:#cb5269"
           id="path8"
           inkscape:connector-curvature="0" />
      </g>
      <path
         d="m 1404.53,562 -1.05,-14 h -10 l -7.08,-94.081 c -0.27,-3.609 2.44,-6.76 6.05,-7.031 3.61,-0.272 6.76,2.438 7.03,6.047 l 7.15,95.065 h 10 l 1.05,14 h -10 l 1.14,15.148 30.77,-2.314 -2.83,-37.605 c -0.08,-1.102 0.46,-2.159 1.4,-2.739 0.94,-0.579 2.13,-0.586 3.07,-0.015 l 62.6,37.67 c 0.82,0.494 1.35,1.355 1.42,2.311 0.07,0.955 -0.32,1.886 -1.06,2.498 l -56.26,46.607 c -0.85,0.705 -2.02,0.876 -3.04,0.444 -1.02,-0.433 -1.71,-1.397 -1.79,-2.499 l -2.53,-33.592 -37.31,2.805 c -3.61,0.272 -6.76,-2.436 -7.03,-6.048 L 1394.53,562 Z m -61.63,0 c 0.08,-0.257 0.17,-0.513 0.25,-0.768 1.41,-4.406 2.63,-8.817 3.65,-13.232 h -10 c 2.71,-11.663 4.06,-23.36 4.06,-35.093 0,-16.04 -2.61,-32.114 -7.82,-48.222 -5.2,-16.109 -13.29,-32.8 -24.26,-50.074 -0.96,-1.508 -0.55,-2.262 1.23,-2.262 h 15.22 c 1.1,0 2.06,0.617 2.88,1.851 12.89,16.04 22.24,32.183 28.07,48.428 5.83,16.246 8.74,33.005 8.74,50.279 0,11.974 -1.38,23.671 -4.13,35.093 h 10 c -1.14,4.714 -2.51,9.381 -4.12,14 h -10 c -0.16,0.465 -0.32,0.929 -0.49,1.392 -5.83,16.245 -15.18,32.319 -28.07,48.222 -0.82,1.234 -1.78,1.851 -2.88,1.851 h -15.22 c -0.96,0 -1.5,-0.24 -1.64,-0.72 -0.14,-0.48 0,-0.994 0.41,-1.542 10.93,-16.999 18.97,-33.401 24.12,-49.203 z m -94.63,0 -0.02,-0.036 c -1.65,-4.608 -3.07,-9.262 -4.25,-13.964 h -10 c -2.99,-11.874 -4.49,-24.048 -4.49,-36.521 0,-17.274 2.91,-34.033 8.74,-50.279 5.83,-16.245 15.18,-32.388 28.07,-48.428 0.82,-1.234 1.78,-1.851 2.88,-1.851 h 15.22 c 1.78,0 2.19,0.754 1.23,2.262 -10.97,17.274 -19.05,33.965 -24.26,50.074 -5.21,16.108 -7.82,32.182 -7.82,48.222 0,12.212 1.47,24.385 4.4,36.521 h 10 c 0.95,3.938 2.05,7.873 3.31,11.804 0.24,0.73 0.48,1.461 0.73,2.196 h -10 c 5.16,15.361 13.04,31.287 23.64,47.775 0.41,0.548 0.55,1.062 0.41,1.542 -0.13,0.48 -0.68,0.72 -1.64,0.72 h -15.22 c -1.1,0 -2.06,-0.617 -2.88,-1.851 -12.88,-15.892 -22.23,-31.954 -28.05,-48.186 z m -816.123,-10 0.208,-13.407 2.633,-95.485 c 0.285,-1.266 0.732,-2.05 1.34,-2.352 0.608,-0.302 1.534,-0.488 2.78,-0.559 l 25.093,-1.419 c 1.246,-0.071 2.187,0.01 2.825,0.242 0.638,0.231 1.171,0.96 1.597,2.186 l 13.384,94.579 2.096,16.215 h 1.091 l -0.251,-16.381 1.042,-114.142 c 0.286,-1.265 0.688,-2.047 1.206,-2.344 0.519,-0.297 1.401,-0.481 2.647,-0.551 l 17.885,-1.012 c 2.314,-0.131 3.666,0.105 4.058,0.708 0.391,0.602 0.444,1.537 0.158,2.802 L 507.431,552 h -10 l -0.379,11 h 10 l -1.294,37.587 c -0.276,1.444 -0.673,2.315 -1.192,2.612 -0.518,0.297 -1.49,0.486 -2.913,0.566 l -26.962,1.526 c -1.423,0.08 -2.41,0.002 -2.959,-0.235 -0.549,-0.236 -1.041,-1.057 -1.478,-2.46 L 464.844,563 h -10 l -1.503,-11 h 10 l -6.34,-46.401 -2.976,-24.201 -0.227,24.382 -1.053,46.22 h -10 l -0.251,11 h 10 l -0.926,40.653 c -0.275,1.444 -0.628,2.312 -1.058,2.604 -0.43,0.292 -1.445,0.483 -3.047,0.574 l -26.961,1.525 c -1.424,0.081 -2.41,0.002 -2.959,-0.234 -0.549,-0.237 -1.042,-1.057 -1.479,-2.461 L 409.793,563 h -10 l -1.617,-11 h 10 L 389.945,427.981 c -0.426,-1.225 -0.479,-2.159 -0.158,-2.802 0.321,-0.643 1.638,-1.03 3.951,-1.161 l 17.619,-0.997 c 1.245,-0.07 2.143,0.013 2.692,0.249 0.549,0.237 1.036,0.968 1.463,2.194 l 13.907,113.296 1.298,13.24 z m 489.217,-52 -1.432,11 h -11 l -12.292,94.418 c -0.411,1.41 -0.888,2.238 -1.432,2.484 -0.544,0.246 -1.528,0.342 -2.951,0.287 l -26.952,-1.039 c -1.423,-0.055 -2.396,-0.226 -2.92,-0.513 -0.523,-0.288 -0.935,-1.15 -1.236,-2.587 L 857.355,511 h -3.957 l -10.929,92.33 c -0.41,1.41 -0.843,2.239 -1.298,2.489 -0.455,0.25 -1.483,0.344 -3.084,0.282 l -26.952,-1.039 c -1.423,-0.055 -2.396,-0.226 -2.92,-0.514 -0.523,-0.287 -0.935,-1.149 -1.236,-2.586 L 802.343,511 h 11 l -0.56,-11 h -11 l -3.933,-77.176 c -0.308,-1.259 -0.272,-2.193 0.108,-2.802 0.38,-0.609 1.726,-0.869 4.039,-0.78 l 17.612,0.679 c 1.245,0.048 2.129,0.216 2.653,0.503 0.523,0.287 0.939,1.061 1.246,2.32 L 825.603,500 h 8.467 l 7.131,-57.867 c 0.404,-1.232 0.922,-1.969 1.555,-2.212 0.633,-0.243 1.572,-0.34 2.817,-0.292 l 25.084,0.967 c 1.245,0.048 2.174,0.217 2.786,0.508 0.613,0.291 1.073,1.066 1.381,2.325 L 877.402,500 h 8.762 l 7.792,-74.541 c 0.404,-1.231 0.878,-1.97 1.422,-2.216 0.544,-0.247 1.439,-0.346 2.684,-0.298 l 17.879,0.69 c 2.312,0.089 3.635,0.451 3.966,1.088 0.332,0.636 0.296,1.57 -0.108,2.802 L 910.364,500 Z M 1181,562 v -14 h -10 v 14 z M 977.601,500 c -1.065,-1.041 -2.3,-1.985 -3.706,-2.831 -2.695,-1.621 -6.025,-2.47 -9.989,-2.547 -5.285,-0.101 -10.796,0.784 -16.532,2.656 -2.416,0.789 -4.769,1.696 -7.058,2.722 h 11 c -3.145,1.409 -6.17,3.042 -9.075,4.899 -2.509,1.604 -4.216,2.315 -5.122,2.132 -0.905,-0.183 -1.342,-1.1 -1.31,-2.752 L 935.892,500 h -11 l 0.289,-15.045 c 0.006,-0.33 -0.023,-0.951 -0.088,-1.861 -0.065,-0.91 0.237,-1.606 0.908,-2.089 0.841,-0.81 1.929,-1.532 3.263,-2.168 5.009,-2.712 10.504,-4.92 16.485,-6.622 5.981,-1.702 12.027,-2.495 18.139,-2.377 15.856,0.305 27.629,4.538 35.321,12.7 4.421,4.688 7.521,10.509 9.301,17.462 h 10.34 l -0.83,-73.809 c -0.01,-0.826 0.27,-1.531 0.84,-2.116 0.57,-0.584 1.27,-0.881 2.1,-0.891 l 22.05,-0.247 c 0.83,-0.009 1.53,0.272 2.11,0.844 0.59,0.571 0.89,1.27 0.9,2.096 l 0.83,74.123 h 11 l 0.12,11 h -11 l 0.65,57.847 59.47,-0.667 c 1.98,-0.023 2.98,1.04 3.01,3.187 l 0.22,19.823 c 0.01,0.826 -0.27,1.531 -0.84,2.116 -0.58,0.584 -1.28,0.881 -2.1,0.891 l -84.49,0.947 c -0.83,0.01 -1.54,-0.272 -2.12,-0.843 -0.58,-0.572 -0.88,-1.271 -0.89,-2.097 L 1018.97,511 h -8.78 c 0.12,2.036 0.16,4.145 0.12,6.326 l -1.05,54.505 c -0.08,4.459 -0.13,9.002 -0.14,13.628 0,4.627 0.21,8.761 0.63,12.405 0.12,2.315 -0.81,3.454 -2.79,3.416 l -19.819,-0.382 c -1.156,-0.022 -1.857,-0.118 -2.101,-0.288 -0.245,-0.17 -0.358,-0.75 -0.338,-1.741 l 0.219,-11.397 c -4.075,5.705 -9.114,9.945 -15.116,12.721 -6.001,2.776 -12.058,4.105 -18.169,3.987 -4.79,-0.092 -9.852,-1.057 -15.186,-2.894 -5.335,-1.838 -9.869,-4.486 -13.603,-7.945 -3.733,-3.459 -6.667,-7.688 -8.802,-12.686 -2.134,-4.997 -3.138,-10.8 -3.011,-17.406 0.137,-7.103 1.707,-13.558 4.71,-19.365 3.004,-5.808 7.516,-10.637 13.539,-14.486 6.022,-3.85 13.304,-6.643 21.847,-8.378 8.543,-1.736 19.421,-2.477 32.634,-2.222 0.053,-2.775 -0.148,-5.374 -0.605,-7.798 h 11 c -0.033,-0.174 -0.067,-0.347 -0.102,-0.519 -0.529,-2.571 -1.515,-5.027 -2.957,-7.368 -0.689,-1.12 -1.523,-2.158 -2.499,-3.113 z m -192.43,11 c 1.565,6.872 2.52,14.252 2.864,22.14 0.051,1.155 0.065,2.436 0.044,3.843 -0.021,1.406 -0.021,2.357 0,2.852 0.058,1.32 -0.189,2.282 -0.742,2.885 -0.552,0.603 -1.324,0.926 -2.314,0.969 l -67.831,2.961 c 0.115,1.844 0.322,3.627 0.62,5.35 h -10 c 0.69,3.995 1.872,7.662 3.545,11 h 10 c 1.023,2.041 2.23,3.961 3.621,5.757 4.643,5.998 11.834,8.785 21.571,8.36 5.942,-0.26 11.151,-1.19 15.629,-2.791 4.477,-1.601 9.033,-4.239 13.668,-7.913 1.291,-0.718 2.079,-0.67 2.363,0.144 0.283,0.815 0.45,1.8 0.501,2.955 l 0.767,17.577 c 0.065,1.485 -0.134,2.61 -0.597,3.374 -0.463,0.765 -1.254,1.585 -2.373,2.46 -4.19,2.498 -8.443,4.503 -12.759,6.014 -4.316,1.511 -9.692,2.407 -16.129,2.688 -18.814,0.822 -33.106,-4.59 -42.874,-16.234 -5.266,-6.278 -9.238,-13.741 -11.917,-22.391 h -10 c -1.076,-3.475 -1.943,-7.142 -2.602,-11 h 10 c -0.742,-4.35 -1.219,-8.945 -1.43,-13.783 -0.368,-8.417 0.264,-16.671 1.895,-24.762 1.631,-8.091 4.411,-15.447 8.338,-22.067 3.928,-6.62 9.02,-12.134 15.276,-16.541 6.257,-4.407 13.593,-6.794 22.01,-7.162 8.913,-0.389 16.546,1.179 22.901,4.705 6.354,3.526 11.606,8.299 15.755,14.318 2.772,4.023 5.083,8.454 6.93,13.292 h 11 c 0.918,2.403 1.721,4.905 2.411,7.507 0.304,1.15 0.591,2.314 0.859,3.493 z m -196.686,52 0.774,-11 h 10 l 7.612,-108.281 c 0.051,-0.725 0.345,-1.287 0.883,-1.686 0.538,-0.399 1.169,-0.574 1.894,-0.523 l 32.4,2.278 c 15.946,1.121 27.898,6.222 35.855,15.304 7.957,9.082 11.466,20.291 10.529,33.628 -0.683,9.713 -3.482,17.929 -8.398,24.649 -4.916,6.72 -11.265,11.555 -19.048,14.504 L 670.298,552 h -10 l 5.089,11 h 10 l 15.382,33.246 c 1.038,1.821 0.179,2.635 -2.575,2.442 l -18.701,-1.315 c -1.595,-0.112 -2.677,-0.261 -3.246,-0.447 -0.57,-0.185 -1.182,-0.811 -1.835,-1.877 L 650.312,563 h -10 l -4.839,-11 h 10 l -7.251,-16.482 -13.699,-0.963 -1.227,17.445 h -10 l -0.773,11 h 10 l -2.005,28.526 c -0.112,1.595 -1.111,2.326 -2.995,2.194 l -18.484,-1.3 c -1.739,-0.122 -2.553,-0.981 -2.441,-2.575 L 598.485,563 Z m -54.745,0 v -11 h 10 v -38.354 h -24.265 c -0.686,0 -1.268,-0.24 -1.748,-0.719 -0.48,-0.48 -0.72,-1.131 -0.72,-1.954 v -16.04 c 0,-0.685 0.24,-1.268 0.72,-1.748 0.48,-0.48 1.062,-0.72 1.748,-0.72 h 44.007 c 0.685,0 1.268,0.24 1.748,0.72 0.48,0.48 0.719,1.063 0.719,1.748 V 552 h -10 v 11 h 10 v 13.983 h 25.294 c 0.686,0 1.268,0.24 1.748,0.72 0.48,0.48 0.72,1.063 0.72,1.748 v 16.04 c 0,1.782 -0.823,2.673 -2.468,2.673 h -75.47 c -0.685,0 -1.268,-0.24 -1.748,-0.719 -0.479,-0.48 -0.719,-1.131 -0.719,-1.954 v -16.04 c 0,-0.685 0.24,-1.268 0.719,-1.748 0.48,-0.48 1.063,-0.72 1.748,-0.72 H 543.74 V 563 Z m 403.837,-0.975 c -0.111,5.78 1.54,10.149 4.952,13.107 3.413,2.957 7.102,4.473 11.066,4.55 8.754,0.168 16.004,-3.121 21.752,-9.867 5.748,-6.746 8.715,-14.992 8.903,-24.737 l 0.052,-2.725 c -17.673,-0.34 -29.847,1.202 -36.522,4.626 -6.675,3.424 -10.076,8.439 -10.203,15.046 z m -58.41,-23.29 0.87,25.957 2.065,-25.843 2.912,-27.849 h -7.111 z M 431.952,564.593 431.976,563 h -0.181 z m -9.976,-1.593 0.171,-11 h -1.43 l 1.078,11 z m 404.622,-26.291 0.069,25.925 2.866,-25.812 3.182,-25.822 h -6.814 z M 475.34,561.573 475.194,552 h -1.091 z M 733.108,500 c -0.934,1.367 -1.739,2.867 -2.416,4.5 -0.952,2.297 -1.698,4.464 -2.236,6.5 h -11 c -0.349,1.322 -0.612,2.589 -0.787,3.801 -0.444,3.078 -0.627,5.525 -0.547,7.341 l 44.313,-1.935 c -0.079,-1.815 -0.474,-4.237 -1.185,-7.265 -0.149,-0.634 -0.324,-1.281 -0.525,-1.942 h 11 c -0.758,-2.495 -1.886,-5.181 -3.384,-8.057 -0.544,-1.044 -1.144,-2.025 -1.799,-2.943 h -11 c -1.624,-2.276 -3.589,-4.159 -5.893,-5.65 -3.233,-2.091 -6.83,-3.05 -10.791,-2.877 -3.961,0.173 -7.42,1.44 -10.376,3.801 -1.682,1.344 -3.14,2.919 -4.374,4.726 z m -103.755,-34.159 -3.241,46.099 10.655,0.749 c 8.119,0.571 14.56,-0.907 19.324,-4.433 4.764,-3.525 7.421,-9.202 7.971,-17.03 0.561,-7.974 -1.134,-13.92 -5.083,-17.84 -3.949,-3.919 -9.331,-6.119 -16.144,-6.598 z M 868.355,511 868.165,506.352 867.991,500 h -2.376 l -0.652,6.229 -0.565,4.771 z m -31.454,0 h 6.814 l 1.355,-11 h -8.467 z M 712,511 v -11 h -11 v 11 z m 317.97,0 -0.12,-11 h -10.34 c 0.87,3.397 1.43,7.064 1.68,11 z m -133.956,0 1.15,-11 h -8.762 l 0.501,11 z M 856.5,482.008 854.615,500 h 2.376 z M 550,437 c 13.246,0 24,10.754 24,24 0,13.246 -10.754,24 -24,24 -13.246,0 -24,-10.754 -24,-24 0,-13.246 10.754,-24 24,-24 z m 646.68,125 25.52,36.895 c 1.74,2.083 1.21,3.18 -1.6,3.292 l -22.78,0.909 c -1.81,0.073 -3.1,-0.083 -3.86,-0.467 -0.76,-0.385 -1.58,-1.222 -2.46,-2.512 l -34.54,-51.56 -13.7,17.193 1.45,36.482 c 0.09,1.986 -0.95,3.022 -3.09,3.108 l -20.06,0.8 c -0.82,0.033 -1.54,-0.228 -2.14,-0.782 -0.6,-0.555 -0.92,-1.245 -0.95,-2.07 l -7.18,-180.005 c -0.04,-0.825 0.22,-1.538 0.78,-2.139 0.55,-0.601 1.24,-0.918 2.07,-0.951 l 20.05,-0.8 c 0.99,-0.04 1.79,0.218 2.39,0.774 0.6,0.556 0.92,1.247 0.95,2.072 l 4.28,107.114 39.14,-50.812 c 1.26,-1.544 2.55,-2.342 3.87,-2.394 l 25.5,-1.018 c 3.14,-0.125 3.68,1.009 1.62,3.403 L 1173.25,528.129 1187,548 h 10 l 9.68,14 z"
         style="fill:#d0d5a4"
         id="path12"
         inkscape:connector-curvature="0" />
    </g>
  </g>
</svg>
